<svg
    id="Warstwa_2"
    xmlns="http://www.w3.org/2000/svg"
    viewBox="0 0 249.45 249.4"
    fill="#fff"
    color="#fff"
>
    <g id="Warstwa_1-2">
        <g>
            <path
                class="cls-1"
                d="M88.11,111.79c.17,.11,.37,.16,.56,.16,.34,0,.68-.17,.88-.48,.31-.48,.17-1.12-.31-1.43-1.55-.99-2.6-2.24-3.21-3.8-.21-.53-.81-.8-1.34-.59-.53,.21-.8,.81-.59,1.34,.76,1.96,2.12,3.57,4.02,4.8Z"
            />
            <path
                class="cls-1"
                d="M249.37,140.66l-27.67-64.95-1.58-12.04,13.8-15.9c.18-.21,.27-.49,.25-.76l-2.42-29.97h0v-.09s-.03-.04-.03-.07c-.02-.12-.05-.23-.11-.34-.02-.03-.04-.06-.06-.1-.04-.05-.06-.11-.1-.16h-.01s-.08-.06-.12-.09c-.01-.01-.02-.03-.04-.04L207.65,.52c-.13-.09-.29-.14-.45-.16-18.07-2.57-34.6,9.17-38.58,26.26-14-5.27-28.75-7.95-43.88-7.95h0c-15.13,0-29.88,2.68-43.88,7.95C76.87,9.54,60.36-2.2,42.29,.35c-.17,.02-.34,.07-.48,.17l-23.64,15.65s-.03,.04-.05,.05c-.04,.03-.09,.05-.13,.09-.04,.04-.06,.1-.09,.14-.02,.03-.04,.06-.06,.09-.06,.11-.09,.22-.11,.34,0,.02-.02,.04-.02,.06v.07h0v.02h0l-2.42,29.97c-.02,.28,.07,.55,.25,.76l13.8,15.9-1.58,12.04L.08,140.66c-.16,.37-.09,.81,.19,1.11,.2,.22,.48,.34,.77,.34,.11,0,.21-.02,.32-.05l2.63-.84,2.69,12.7-4.36,12.97c-.13,.38-.02,.81,.27,1.09l62.4,58.68c.06,.06,.13,.09,.2,.13,.03,.02,.06,.04,.09,.06,.13,.06,.27,.1,.42,.1,.23,0,.45-.08,.64-.23h.02s.02-.02,.02-.02c.21-.18,.32-.42,.35-.67,0-.03,0-.06,0-.09,0-.1,0-.2-.02-.29-.01-.05-.04-.1-.06-.15-.03-.06-.04-.12-.08-.18-17.56-25.66-28.51-49.92-32.64-72.22l32.36,54.77c.05,.09,.11,.16,.19,.23l41.04,38.31c.2,.19,.45,.28,.71,.28,.28,0,.55-.11,.76-.33,.39-.42,.37-1.08-.05-1.47l-40.93-38.2-22.28-37.72c13.84,18.34,27.47,32.89,41.33,44.16h0l36.97,36s.01,0,.02,.01c.09,.08,.18,.15,.3,.2h.01c.1,.04,.21,.06,.32,.07,.03,0,.05,.02,.07,.02h0s.05-.01,.07-.02c.11,0,.22-.02,.32-.06h.01c.11-.05,.21-.12,.3-.2,0,0,.01,0,.02-.01l36.97-35.99h0c13.86-11.27,27.49-25.83,41.33-44.16l-22.28,37.72-40.93,38.2c-.42,.39-.44,1.05-.05,1.47,.2,.22,.48,.33,.76,.33,.25,0,.51-.09,.71-.28l41.04-38.31c.07-.07,.14-.15,.19-.23l32.36-54.77c-4.13,22.3-15.08,46.56-32.64,72.22-.04,.05-.05,.11-.08,.17-.02,.05-.05,.1-.07,.15-.02,.09-.03,.18-.02,.28,0,.03,0,.07,0,.1,.03,.25,.15,.5,.35,.67,0,0,.02,0,.02,.01h0s.02,0,.03,.02c.19,.14,.4,.22,.63,.22,.14,0,.28-.04,.42-.1,.03-.01,.06-.04,.09-.05,.07-.04,.15-.07,.21-.13l62.4-58.68c.3-.28,.4-.7,.27-1.09l-4.36-12.97,2.69-12.7,2.63,.84c.1,.03,.21,.05,.32,.05,.29,0,.57-.12,.77-.34,.27-.3,.35-.73,.19-1.11Zm-19.8,11.26l-5.94,5.28-7.57-14.25,5.41-5.88s.01-.02,.02-.03c.01-.02,.03-.03,.04-.05,0-.01,.02-.02,.03-.03,.02-.03,.02-.07,.04-.1,.03-.05,.06-.1,.08-.16,0-.03,.02-.05,.02-.08,.01-.04,.01-.09,.02-.13,0-.04,.02-.08,.02-.12v-44.41l7.84,59.96Zm-22.97-1.75l-44.31-25.44c-.5-.29-1.13-.11-1.42,.38-.29,.5-.11,1.13,.38,1.42l43.91,25.21-21.13,22.97-19.76-41.32c-.23-.48-.78-.71-1.28-.53-.5,.18-.79,.7-.66,1.22,6.5,27.3,8.84,45.87,6.97,55.22l-12.01,3.45c11.25-17.83,4.59-40.1-6.8-71.42,1.32-7.83,3.12-15.94,7.17-22.4,.92-1.47,2.52-2.33,4.28-2.32,3.86,.04,7.68,.92,11.36,2.62,1.02,.47,1.87,1.24,2.44,2.21l.53,.89-5.09-.28s-.04,0-.06,0l-6.25-.34c-1.34-.08-2.65,.32-3.67,1.12-4.11,3.2-5.74,7.43-4.84,12.57,.25,1.44,1.55,2.5,3,2.5,.07,0,.14,0,.21,0,4.54-.31,7.78-1.66,9.9-4.12,1.95-2.27,2.87-5.49,2.72-9.59l5.33,.29,2.8,4.76c.49,.84,1.18,1.57,1.98,2.12l36.82,25.19-12.52,13.61Zm-45.65,61.48l-35.18,34.25v-28.83c14.33-6.9,23.77-13.79,29.66-21.63l15.03-4.31c.36-.1,.64-.4,.73-.76,1.96-8.53,.41-24.15-4.75-47.62l16.14,33.74-21.63,35.17Zm-94.06-35.17l16.14-33.74c-5.16,23.47-6.71,39.09-4.75,47.62,.08,.37,.36,.66,.73,.76l15.03,4.31c5.89,7.84,15.33,14.73,29.66,21.63v28.83l-35.18-34.25-21.63-35.17Zm21.71-51.37c-.29-.5-.92-.67-1.42-.38l-44.31,25.44-12.52-13.61,36.82-25.2c.8-.55,1.49-1.28,1.98-2.12l2.8-4.76,5.34-.29c-.14,4.1,.77,7.32,2.72,9.59,2.12,2.46,5.35,3.81,9.9,4.12,.07,0,.14,0,.21,0,1.46,0,2.75-1.07,3-2.5,.9-5.15-.73-9.38-4.84-12.57-1.02-.79-2.33-1.19-3.67-1.12l-6.25,.34s-.04,0-.05,0l-5.09,.28,.53-.89c.57-.97,1.42-1.74,2.44-2.21,3.68-1.69,7.5-2.58,11.36-2.62,1.75,0,3.35,.85,4.28,2.32,4.06,6.46,5.85,14.57,7.17,22.4-11.39,31.32-18.05,53.58-6.8,71.42l-12.01-3.45c-1.88-9.35,.47-27.92,6.97-55.22,.12-.52-.16-1.04-.66-1.22-.5-.17-1.05,.05-1.28,.53l-19.76,41.32-21.13-22.97,43.91-25.21c.5-.29,.67-.92,.38-1.42Zm-62.76,32.09l-5.94-5.28,7.84-59.96v44.41s.02,.08,.02,.12c0,.04,0,.09,.02,.13,0,.03,.01,.05,.02,.08,.02,.06,.05,.11,.08,.16,.02,.03,.02,.07,.04,.1,0,.01,.02,.02,.03,.03,.01,.02,.03,.03,.04,.05,0,0,.01,.02,.02,.03l5.41,5.88-7.57,14.25Zm5.58-93.42c3.52-4.12,7.32-8.04,11.33-11.63,7.25-6.52,15.23-12.12,23.78-16.73L30.2,73l1.21-9.22ZM80.47,28.97c14.09-5.46,28.98-8.24,44.26-8.24,15.28,0,30.17,2.77,44.26,8.24,1.09,.42,2.2,.87,3.3,1.33l-47.51-2.56s-.02,0-.03,0c0,0-.02,0-.03,0h0s-.02,0-.03,0c0,0-.02,0-.03,0l-47.51,2.56c1.11-.47,2.22-.92,3.31-1.34Zm97.05,71.41c-.79-1.34-1.95-2.39-3.36-3.04-3.95-1.82-8.06-2.76-12.21-2.81-2.47,.01-4.75,1.2-6.06,3.29-3.63,5.78-5.51,12.72-6.83,19.64-1.14-3.11-2.33-6.32-3.56-9.64-2.64-7.12-5.36-14.47-8.23-22.46l44.11-18.6,36.31,66.32-34.23-23.42c-.55-.38-1.02-.88-1.36-1.46l-4.59-7.81Zm-52.79-16.64h-11.03l-45.69-19.27c-.07-.03-.15-.04-.23-.05-.03,0-.05-.02-.08-.02-.12-.01-.25,0-.37,.03h-.01s-.03,0-.04,0l-16.51,5.56-18.85,4.22,38.39-39.72-2.33,25.36c-.05,.54,.33,1.03,.86,1.12l47.55,7.9,7.69,6.16s.05,.02,.07,.04c.04,.03,.08,.06,.13,.08,.04,.02,.07,.03,.11,.04,.05,.02,.09,.03,.14,.04,.05,0,.09,.02,.14,.02,.02,0,.04,.01,.06,.01h0s.03,0,.05-.01c.05,0,.1-.01,.15-.02,.05,0,.09-.02,.13-.03,.04-.01,.08-.02,.11-.04,.05-.02,.09-.05,.13-.08,.02-.02,.05-.02,.07-.04l7.69-6.16,47.55-7.9c.54-.09,.91-.58,.86-1.12l-2.33-25.36,38.39,39.72-18.85-4.22-16.51-5.56s-.03,0-.04,0h-.02c-.12-.03-.24-.05-.36-.04-.03,0-.06,.01-.08,.02-.08,.01-.16,.02-.23,.05l-45.69,19.27h-11.03Zm-24.34,33.72c-1.32-6.91-3.2-13.85-6.83-19.64-1.3-2.07-3.53-3.29-5.98-3.29h-.08c-4.15,.05-8.26,.99-12.21,2.81-1.41,.65-2.57,1.7-3.36,3.04l-4.59,7.81c-.34,.58-.81,1.08-1.36,1.46l-34.23,23.42,36.31-66.32,44.11,18.6c-2.86,7.98-5.59,15.33-8.22,22.45-1.23,3.33-2.42,6.54-3.57,9.66Zm-70.59-14.13l23.61-14.12-23.61,43.11v-28.99Zm25.58-17.72l-22.96,13.74,19.28-27.47,13.73-4.62-10.05,18.36Zm-25.58,13.85v-22.64l18.85-4.22-18.85,26.86ZM158.12,48.79h.02l18.85-15.13,2.34,25.42-42.95,7.14,21.75-17.44Zm-.71-2.09l-28.46-16.64,46.11,2.49-17.65,14.15Zm-1.74,1.39l-29.91,23.98V30.59l29.91,17.49Zm-31.99,23.98l-29.91-23.98,29.91-17.49v41.47Zm-51.22-38.4l18.84,15.11,.02,.02,21.74,17.43-42.95-7.14,2.34-25.42Zm19.57,13.03l-17.65-14.15,46.11-2.49-28.46,16.64Zm105.72,25.18l19.28,27.47-22.96-13.74-10.05-18.36,13.73,4.62Zm21.9,31.45v28.99l-23.61-43.11,23.61,14.12Zm-18.85-30.73l18.85,4.22v22.64l-18.85-26.86Zm17.24-8.82l1.21,9.22-36.32-37.58c8.55,4.61,16.53,10.21,23.78,16.73,4,3.59,7.81,7.51,11.33,11.63Zm-10.8-13.91c-8.33-7.36-17.59-13.56-27.56-18.45l14.26-12.45c4.43-3.87,11.05-3.82,15.4,.1,11.22,10.11,9.61,15.34-2.11,30.8Zm-165.04,0c-11.71-15.46-13.32-20.69-2.11-30.8,4.35-3.92,10.98-3.97,15.4-.1l14.26,12.45c-9.96,4.89-19.22,11.09-27.56,18.45Zm37.15,54.21l5.35-.29c.85-.05,1.65,.2,2.28,.68,3.51,2.72,4.84,6.18,4.07,10.58-.08,.47-.53,.81-1.02,.78-3.96-.27-6.73-1.39-8.47-3.4-1.63-1.89-2.37-4.7-2.21-8.35Zm16.12,89.83c-12.91-17.45-6.18-39.89,5.55-72.14,1.53-4.22,3.17-8.62,4.88-13.24,2.66-7.19,5.41-14.62,8.31-22.7h21.02c2.9,8.09,5.65,15.53,8.32,22.72,1.71,4.61,3.34,9.02,4.87,13.23,11.73,32.25,18.46,54.69,5.55,72.14-5.68,7.7-14.99,14.49-29.25,21.35-14.26-6.86-23.57-13.65-29.25-21.35Zm72.41-81.48c-1.74,2.02-4.51,3.13-8.47,3.4-.48,.03-.94-.31-1.02-.78-.77-4.39,.56-7.85,4.07-10.58,.58-.45,1.31-.69,2.08-.69,.07,0,.13,0,.2,0l5.35,.29c.16,3.65-.58,6.46-2.21,8.35ZM206.7,2.38l23.02,15.24,2.35,29.12-13.04,15.02c-3.2-3.7-6.64-7.23-10.23-10.51,11.82-15.59,14.68-22.25,1.94-33.73-5.13-4.63-12.94-4.68-18.16-.12l-14.92,13.03c-2.38-1.12-4.76-2.15-7.1-3.06C174.18,11.22,189.65,.06,206.7,2.38ZM19.74,17.62L42.76,2.38C59.81,.06,75.28,11.22,78.89,27.36c-2.33,.92-4.71,1.94-7.1,3.06l-14.92-13.03c-5.22-4.56-13.03-4.5-18.16,.12-12.74,11.48-9.88,18.14,1.94,33.73-3.6,3.28-7.03,6.8-10.23,10.51l-13.04-15.02,2.35-29.12Zm7.01,65.72l-6.6,50.51-17.27,5.53,23.87-56.04Zm-6.9,52.78l-1.85,14.13-11.19-9.95,13.04-4.18Zm-13.42,6.62l11.3,10.04c.07,.45,.41,.82,.88,.88,.04,0,.08,0,.12,0l6.41,5.69,1.07,9.58c.06,.53,.51,.92,1.03,.92,.04,0,.08,0,.12,0,.57-.06,.98-.58,.92-1.15l-1.08-9.65,4.26-8.01c3.06,18.62,10.87,38.59,23.28,59.58L8.72,153.51l-2.28-10.77Zm1.7,13.35l47.33,58.74L4.5,166.91l3.64-10.81Zm25.08-8.36l1.68-3.16,29.98,32.6,18.54,30.15c-16.71-14.6-33.19-34.16-50.2-59.59Zm132.83,59.59l18.54-30.15,29.98-32.6,1.68,3.16c-17.01,25.43-33.49,44.99-50.2,59.59Zm78.91-40.41l-50.97,47.94,47.34-58.75,3.64,10.81Zm-4.22-13.4l-46.01,57.11c12.41-20.99,20.22-40.96,23.28-59.58l4.26,8.01-1.08,9.65c-.06,.57,.35,1.08,.92,1.15,.04,0,.08,0,.12,0,.52,0,.97-.39,1.03-.92l1.07-9.58,6.41-5.69s.08,0,.12,0c.47-.06,.81-.43,.88-.88l11.3-10.04-2.28,10.76Zm-9.29-3.26l-1.85-14.13,13.04,4.18-11.19,9.95Zm-2.14-16.4l-6.6-50.51,23.87,56.04-17.27-5.53Z"
            />
            <path
                class="cls-1"
                d="M124.76,146.78s-.02,0-.03,0c-.01,0-.02,0-.03,0-10.02,.33-15.68,2.04-18.92,5.74-4.74,5.4-3.85,14.54-2.37,29.68,.17,1.78,.36,3.64,.54,5.59,.01,.13,.06,.26,.12,.38h0s.06,.08,.09,.12c.03,.05,.06,.1,.1,.14,6.05,6.01,12.91,9.41,20.38,10.11,.03,0,.06,0,.09,0h0s.06,0,.09,0c7.48-.7,14.33-4.1,20.38-10.11,.04-.04,.06-.09,.09-.13,.03-.04,.07-.08,.09-.13h0c.06-.12,.1-.25,.12-.38,.18-1.95,.36-3.81,.54-5.59,1.48-15.14,2.37-24.28-2.37-29.68-3.24-3.69-8.9-5.41-18.92-5.74Zm-4.51,31.34s.05-.05,.07-.07c.03-.03,.06-.05,.09-.08,.04-.04,.07-.09,.1-.13,.02-.02,.04-.04,.05-.07,0-.01,.01-.02,.02-.04v-.02c1.89-3.54,1.71-6.88-.51-9.89-1.86-2.7-4.05-4.16-5.85-3.9-.9,.13-1.6,.7-1.87,1.53-.37,1.15,.13,2.5,1.38,3.7,.41,.4,1.07,.39,1.47-.03,.4-.41,.39-1.07-.03-1.47-.76-.73-.92-1.34-.85-1.57,0-.03,.03-.09,.19-.11,.55-.09,2.07,.44,3.86,3.05,1.56,2.12,1.83,4.35,.81,6.8-7.55-4.27-11.41-8.5-10.6-11.68,.87-3.42,7.21-5.62,16.15-5.62h0c8.94,0,15.28,2.21,16.15,5.62,.81,3.17-3.05,7.4-10.6,11.68-1.02-2.45-.75-4.69,.83-6.83,1.77-2.57,3.29-3.1,3.84-3.02,.16,.02,.18,.08,.19,.11,.07,.23-.09,.84-.85,1.57-.41,.4-.42,1.06-.03,1.47,.4,.41,1.06,.42,1.47,.03,1.25-1.2,1.75-2.55,1.38-3.7-.27-.82-.96-1.4-1.87-1.53-1.8-.26-3.99,1.19-5.83,3.87-2.25,3.05-2.43,6.38-.54,9.92v.02s.02,.02,.03,.04c.01,.03,.04,.05,.05,.07,.03,.05,.06,.09,.1,.13,.03,.03,.06,.06,.09,.08,.03,.02,.05,.05,.07,.07l9.54,6.77c-3.92-.91-8-1.3-13.99-1.48-.01,0-.02,0-.03,0-.01,0-.02,0-.03,0-5.99,.17-10.07,.57-13.99,1.48l9.54-6.77Zm4.48,7.37c8.07,.23,12.41,.85,17.77,2.61-5.36,4.9-11.32,7.72-17.77,8.35-6.44-.62-12.41-3.44-17.77-8.35,5.36-1.76,9.7-2.38,17.77-2.61Zm19.25-3.5c-.12,1.22-.24,2.5-.37,3.81l-11.86-8.42c10.51-6.04,11.89-10.78,11.14-13.74-1.14-4.5-7.93-7.19-18.16-7.19h0c-10.23,0-17.02,2.69-18.16,7.19-.75,2.96,.63,7.7,11.14,13.74l-11.86,8.42c-.12-1.3-.25-2.58-.37-3.81-1.43-14.58-2.28-23.38,1.86-28.11,2.79-3.17,8.15-4.72,17.39-5.03,9.24,.31,14.6,1.86,17.39,5.03,4.15,4.72,3.29,13.53,1.86,28.11Z"
            />
            <path
                class="cls-1"
                d="M163.44,106.24c-.61,1.56-1.66,2.81-3.21,3.8-.48,.31-.62,.95-.31,1.43,.2,.31,.53,.48,.88,.48,.19,0,.39-.05,.56-.16,1.91-1.22,3.26-2.84,4.02-4.8,.21-.53-.06-1.14-.59-1.34-.53-.21-1.14,.06-1.34,.59Z"
            />
        </g>
    </g>
</svg>
